<?xml version="1.0" standalone="yes"?>
<svg xmlns="http://www.w3.org/2000/svg" width="250" height="250">
<path style="fill:#010101; stroke:none;" d="M0 0L0 17L1 17C3.2612 9.38704 9.38705 3.26118 17 1L0 0z"/>
<path style="fill:#ffffff; stroke:none;" d="M17 0.529327C-5.56844 5.74626 0 34.94 0 52L0 187C0 201.488 -5.0288 227.723 3.64892 239.996C14.8981 255.906 43.0097 250 60 250L179 250C195.714 250 217.933 253.854 234 249.211C255.519 242.991 250 214.953 250 198L250 62C250 47.3911 255.078 21.0578 245.606 9.00386C233.945 -5.83751 205.81 0 189 0L73 0C55.5248 0 34.0218 -3.40544 17 0.529327z"/>
<path style="fill:#010101; stroke:none;" d="M233 0L233 1C240.613 3.26118 246.739 9.38705 249 17L250 17L250 0L233 0M35 35L35 51L88 51L88 183L107 183L107 51L160 51L160 35L35 35M120 62L120 215C144.807 215 182.718 222.218 202.91 204.532C223.673 186.346 218.562 137.233 187 134L187 132C214.762 129.156 215.798 86.5537 197.91 71.6806C178.837 55.8227 143.037 62 120 62z"/>
<path style="fill:#ffffff; stroke:none;" d="M138 79L138 126C151.465 126 171.057 129.506 182.996 122.005C196.512 113.514 195.336 88.3283 180.999 81.4028C169.171 75.6888 150.864 79 138 79M138 142L138 199C152.151 199 172.151 202.599 184.985 195.672C201.36 186.834 201.579 155.705 185.999 145.995C173.358 138.116 152.275 142 138 142z"/>
<path style="fill:#010101; stroke:none;" d="M0 233L0 250L17 250L17 249C8.55333 246.303 4.67905 239.914 0 233M249 233C246.739 240.613 240.613 246.739 233 249L233 250L250 250L249 233z"/>
</svg>
