<?xml version="1.0" standalone="no"?>
<!DOCTYPE svg PUBLIC "-//W3C//DTD SVG 20010904//EN"
 "http://www.w3.org/TR/2001/REC-SVG-20010904/DTD/svg10.dtd">
<svg version="1.0" xmlns="http://www.w3.org/2000/svg"
 width="512.000000pt" height="512.000000pt" viewBox="0 0 512.000000 512.000000"
 preserveAspectRatio="xMidYMid meet">

<g transform="translate(0.000000,512.000000) scale(0.100000,-0.100000)"
fill="#000000" stroke="none">
<path d="M0 2560 l0 -2560 2560 0 2560 0 0 2560 0 2560 -2560 0 -2560 0 0
-2560z m3145 2239 c217 -10 559 -41 655 -60 115 -22 157 -48 211 -132 91 -141
158 -413 175 -715 5 -89 11 -128 22 -138 24 -25 36 -2 22 42 -7 21 -13 74 -14
117 -1 72 1 80 24 99 22 18 35 20 117 15 97 -6 126 -15 144 -48 17 -33 24
-164 10 -198 -10 -23 -10 -34 -1 -52 14 -25 40 -548 30 -588 -3 -14 -17 -33
-31 -43 -21 -16 -35 -17 -113 -10 -80 7 -90 11 -108 35 -11 15 -27 27 -35 27
-14 0 -15 -14 -10 -102 14 -230 19 -523 12 -693 l-7 -179 -32 -32 c-17 -17
-36 -33 -42 -35 -6 -2 -14 -30 -18 -62 -5 -50 -4 -58 11 -63 51 -16 90 -37
101 -54 9 -15 5 -122 -18 -497 -17 -263 -35 -520 -40 -571 -11 -104 -39 -198
-76 -254 -21 -33 -24 -49 -24 -136 0 -94 -1 -101 -26 -126 l-27 -26 -199 0
-199 0 -25 25 c-23 24 -25 32 -22 97 l3 71 -90 -6 c-49 -4 -286 -12 -526 -18
-415 -11 -1054 -3 -1394 18 l-100 6 3 -71 c3 -65 1 -73 -22 -97 l-25 -25 -199
0 c-197 0 -199 0 -226 25 -25 23 -26 29 -26 125 0 90 -3 104 -24 138 -37 56
-65 150 -76 254 -5 51 -21 289 -35 528 -14 239 -28 453 -31 476 -7 50 21 88
81 109 l40 14 -3 58 c-2 42 -7 60 -20 67 -9 5 -29 21 -43 35 -26 26 -26 28
-32 231 -4 113 -3 318 3 455 12 320 12 315 -1 315 -6 0 -23 -13 -37 -28 -24
-26 -36 -29 -111 -35 -96 -8 -126 3 -138 51 -10 42 13 566 27 592 9 17 9 29
-1 51 -15 37 -5 158 16 199 18 36 30 40 139 47 82 5 94 3 116 -15 23 -19 25
-27 24 -99 0 -43 -6 -95 -13 -116 -14 -42 -6 -62 21 -52 12 5 17 33 22 138 17
313 82 580 175 724 73 113 113 127 461 163 180 18 498 36 765 44 155 4 562 -3
810 -15z"/>
<path d="M2175 4299 c-377 -14 -1009 -60 -1042 -74 -44 -19 -59 -54 -82 -186
-24 -132 -85 -869 -76 -915 11 -60 31 -68 152 -61 143 8 340 29 728 77 381 47
533 60 710 60 177 0 329 -13 710 -60 387 -48 585 -69 726 -77 l105 -6 23 29
c27 34 27 16 -15 539 -25 311 -53 504 -80 557 -26 51 -52 55 -474 83 -679 44
-963 51 -1385 34z"/>
<path d="M1160 1955 c-17 -21 44 -692 65 -714 16 -16 73 -26 205 -36 79 -6 98
-4 108 8 10 12 5 60 -28 248 -22 129 -47 281 -56 339 -9 58 -20 113 -25 122
-11 21 -26 25 -144 38 -115 13 -110 13 -125 -5z"/>
<path d="M3811 1956 c-82 -10 -96 -14 -112 -36 -11 -16 -27 -85 -44 -190 -15
-91 -40 -241 -56 -334 -39 -216 -48 -204 138 -187 105 9 142 16 155 29 25 24
88 692 69 716 -15 18 -18 18 -150 2z"/>
<path d="M1583 1784 c-3 -9 0 -29 8 -43 14 -24 23 -27 144 -43 383 -50 536
-62 830 -62 294 0 447 12 830 62 l129 17 10 33 c5 20 5 36 0 41 -5 5 -86 -2
-181 -14 -374 -50 -499 -59 -783 -60 -157 0 -329 6 -400 13 -141 15 -498 59
-548 67 -25 5 -34 2 -39 -11z"/>
<path d="M1619 1603 c-3 -18 3 -59 9 -65 9 -9 440 -55 637 -68 204 -13 397
-13 605 1 183 11 606 55 621 64 8 6 14 75 5 75 -1 0 -97 -11 -212 -25 -309
-36 -452 -45 -719 -45 -267 0 -410 9 -719 45 -237 28 -226 27 -227 18z"/>
<path d="M1650 1400 c0 -42 14 -46 220 -65 533 -48 871 -48 1390 1 195 18 210
22 210 64 0 16 -5 30 -12 30 -6 0 -97 -9 -202 -20 -282 -29 -474 -40 -691 -40
-217 0 -409 11 -691 40 -242 25 -224 26 -224 -10z"/>
<path d="M1680 1231 c0 -17 5 -33 10 -36 6 -4 77 -13 158 -20 483 -45 887 -46
1402 -4 177 15 190 19 190 59 0 17 -5 30 -12 30 -7 0 -80 -7 -163 -15 -488
-47 -912 -47 -1400 0 -197 20 -185 21 -185 -14z"/>
</g>
</svg>
